<svg width="17" height="16" viewBox="0 0 17 16" fill="none" xmlns="http://www.w3.org/2000/svg">
<path d="M13.8334 6C13.5873 6 13.3565 6.06706 13.1582 6.18391C13.0837 5.51856 12.5179 5 11.8334 5C11.5078 5 11.2087 5.11784 10.9763 5.31413C10.7429 4.92644 10.3181 4.66666 9.83337 4.66666C9.59087 4.66666 9.363 4.73175 9.16672 4.84569V1.33334C9.16669 0.597969 8.56872 0 7.83337 0C7.09803 0 6.50003 0.597969 6.50003 1.33334V10.2546C6.50003 10.4225 6.38934 10.5088 6.34181 10.5381C6.29428 10.5674 6.16634 10.6276 6.01759 10.5527L3.87697 9.48244C3.68197 9.38478 3.46356 9.33334 3.24547 9.33334C2.46681 9.33334 1.83337 9.96681 1.83337 10.7455V11C1.83337 11.0924 1.87178 11.1807 1.93916 11.2438L5.7865 14.8346C6.59181 15.5859 7.64197 16 8.74319 16H10.8333C13.2227 16 15.1667 14.056 15.1667 11.6667V7.33334C15.1667 6.59797 14.5687 6 13.8334 6ZM14.5 11.6667C14.5 13.6885 12.8552 15.3333 10.8334 15.3333H8.74322C7.81156 15.3333 6.9229 14.9831 6.24159 14.347L2.50003 10.8552V10.7455C2.50003 10.3343 2.83434 10 3.24547 10C3.36037 10 3.47594 10.0273 3.57881 10.0788L5.71944 11.1491C6.03162 11.3057 6.39553 11.2884 6.69241 11.1055C6.98928 10.9219 7.16669 10.6038 7.16669 10.2546V1.33334C7.16669 0.965844 7.46584 0.666687 7.83334 0.666687C8.20084 0.666687 8.5 0.965844 8.5 1.33334V6.33334C8.5 6.51759 8.64909 6.66669 8.83334 6.66669C9.01759 6.66669 9.16669 6.51759 9.16669 6.33334V6C9.16669 5.6325 9.46584 5.33334 9.83334 5.33334C10.2008 5.33334 10.5 5.6325 10.5 6V6.33334C10.5 6.334 10.5 6.33466 10.5 6.33531V6.33563C10.5013 6.51856 10.6501 6.66669 10.8333 6.66669C11.0176 6.66669 11.1667 6.51759 11.1667 6.33334V6.32812C11.1693 5.96322 11.4681 5.66666 11.8333 5.66666C12.2008 5.66666 12.5 5.96581 12.5 6.33331V7.33331C12.5 7.51756 12.6491 7.66666 12.8333 7.66666C13.0176 7.66666 13.1667 7.51756 13.1667 7.33331C13.1667 6.96581 13.4658 6.66666 13.8333 6.66666C14.2008 6.66666 14.5 6.96581 14.5 7.33334V11.6667Z" fill="black"/>
</svg>
